<mxfile host="app.diagrams.net" modified="2024-06-18T07:19:53.512Z" agent="Mozilla/5.0 (Windows NT 10.0; Win64; x64) AppleWebKit/537.36 (KHTML, like Gecko) Chrome/125.0.0.0 Safari/537.36" version="24.5.4" etag="sk9CHnqQhbOI5Oa08LvA" type="github">
  <diagram name="Page-1" id="iMQuhnkQLrZXFeTwMuiQ">
    <mxGraphModel>
      <root>
        <mxCell id="0" />
        <mxCell id="1" parent="0" />
      </root>
    </mxGraphModel>
  </diagram>
</mxfile>
